<svg width="23" height="23" viewBox="0 0 23 23" fill="none" xmlns="http://www.w3.org/2000/svg">
<path d="M11.5 4.76172C11.2151 4.76172 10.9418 4.64854 10.7404 4.44707C10.539 4.24565 10.4258 3.97241 10.4258 3.6875V1.34375C10.4258 1.05885 10.539 0.785615 10.7404 0.58416C10.9418 0.382705 11.2151 0.269531 11.5 0.269531C11.7849 0.269531 12.0582 0.382705 12.2596 0.58416C12.461 0.785615 12.5742 1.05885 12.5742 1.34375V3.6875C12.5742 3.97241 12.461 4.24565 12.2596 4.44707C12.0582 4.64854 11.7849 4.76172 11.5 4.76172ZM11.5 22.7305C11.2151 22.7305 10.9418 22.6173 10.7404 22.4158C10.539 22.2144 10.4258 21.9412 10.4258 21.6562V19.3125C10.4258 19.0276 10.539 18.7543 10.7404 18.5529C10.9418 18.3515 11.2151 18.2383 11.5 18.2383C11.7849 18.2383 12.0582 18.3515 12.2596 18.5529C12.461 18.7543 12.5742 19.0276 12.5742 19.3125V21.6562C12.5742 21.9412 12.461 22.2144 12.2596 22.4158C12.0582 22.6173 11.7849 22.7305 11.5 22.7305ZM17.0244 7.0498C16.812 7.04976 16.6043 6.98677 16.4277 6.86875C16.2511 6.75078 16.1135 6.58306 16.0322 6.38682C15.9508 6.19058 15.9295 5.97466 15.9709 5.76631C16.0123 5.55796 16.1145 5.36655 16.2646 5.21631L17.9219 3.55908C18.1242 3.36201 18.396 3.25255 18.6785 3.25441C18.9609 3.25627 19.2312 3.3693 19.431 3.56902C19.6307 3.76874 19.7437 4.03911 19.7456 4.32153C19.7475 4.60396 19.638 4.87578 19.4409 5.07812L17.7837 6.73535C17.6841 6.83521 17.5657 6.91436 17.4354 6.96831C17.3051 7.02227 17.1654 7.04995 17.0244 7.0498ZM4.31836 19.7559C4.10591 19.7558 3.89819 19.6928 3.72155 19.5747C3.54491 19.4566 3.40724 19.2889 3.32597 19.0925C3.2447 18.8962 3.22346 18.6802 3.26496 18.4719C3.30645 18.2635 3.40881 18.0721 3.55908 17.9219L5.21631 16.2646C5.31558 16.1627 5.43408 16.0815 5.56494 16.0258C5.69585 15.9701 5.83652 15.9409 5.97876 15.94C6.121 15.939 6.26206 15.9664 6.39365 16.0204C6.52524 16.0744 6.64482 16.154 6.74541 16.2546C6.846 16.3552 6.92563 16.4748 6.97964 16.6063C7.03364 16.7379 7.06099 16.879 7.06001 17.0212C7.05908 17.1635 7.02993 17.3042 6.97417 17.435C6.91846 17.5659 6.83726 17.6844 6.73535 17.7837L5.07812 19.4409C4.97847 19.5409 4.86006 19.6202 4.72969 19.6742C4.59927 19.7283 4.45952 19.756 4.31836 19.7559ZM21.6562 12.5742H19.3125C19.0276 12.5742 18.7543 12.461 18.5529 12.2596C18.3515 12.0582 18.2383 11.7849 18.2383 11.5C18.2383 11.2151 18.3515 10.9418 18.5529 10.7404C18.7543 10.539 19.0276 10.4258 19.3125 10.4258H21.6562C21.9412 10.4258 22.2144 10.539 22.4158 10.7404C22.6173 10.9418 22.7305 11.2151 22.7305 11.5C22.7305 11.7849 22.6173 12.0582 22.4158 12.2596C22.2144 12.461 21.9412 12.5742 21.6562 12.5742ZM3.6875 12.5742H1.34375C1.05885 12.5742 0.785615 12.461 0.58416 12.2596C0.382705 12.0582 0.269531 11.7849 0.269531 11.5C0.269531 11.2151 0.382705 10.9418 0.58416 10.7404C0.785615 10.539 1.05885 10.4258 1.34375 10.4258H3.6875C3.97241 10.4258 4.24565 10.539 4.44707 10.7404C4.64854 10.9418 4.76172 11.2151 4.76172 11.5C4.76172 11.7849 4.64854 12.0582 4.44707 12.2596C4.24565 12.461 3.97241 12.5742 3.6875 12.5742ZM18.6816 19.7559C18.5405 19.756 18.4007 19.7283 18.2703 19.6742C18.1399 19.6202 18.0215 19.5409 17.9219 19.4409L16.2646 17.7837C16.0676 17.5813 15.9581 17.3095 15.96 17.0271C15.9618 16.7447 16.0749 16.4743 16.2746 16.2746C16.4743 16.0749 16.7447 15.9618 17.0271 15.96C17.3095 15.9581 17.5813 16.0676 17.7837 16.2646L19.4409 17.9219C19.5912 18.0721 19.6936 18.2635 19.7351 18.4719C19.7765 18.6802 19.7553 18.8962 19.674 19.0925C19.5928 19.2889 19.4551 19.4566 19.2785 19.5747C19.1018 19.6928 18.8941 19.7558 18.6816 19.7559ZM5.97559 7.0498C5.83452 7.0501 5.69482 7.02246 5.5645 6.96846C5.43418 6.9145 5.31587 6.83525 5.21631 6.73535L3.55908 5.07812C3.36201 4.87578 3.25255 4.60396 3.25441 4.32153C3.25627 4.03911 3.3693 3.76874 3.56902 3.56902C3.76874 3.3693 4.03911 3.25627 4.32153 3.25441C4.60396 3.25255 4.87578 3.36201 5.07812 3.55908L6.73535 5.21631C6.8855 5.36655 6.9877 5.55796 7.0291 5.76631C7.07046 5.97466 7.04917 6.19058 6.96782 6.38682C6.88652 6.58306 6.74888 6.75078 6.57227 6.86875C6.39565 6.98677 6.18799 7.04976 5.97559 7.0498ZM11.5 16.4805C10.5149 16.4805 9.55205 16.1884 8.73301 15.6411C7.91396 15.0938 7.27559 14.316 6.89863 13.406C6.52168 12.4959 6.42305 11.4945 6.61523 10.5284C6.80742 9.56226 7.28174 8.6748 7.97827 7.97827C8.6748 7.28174 9.56226 6.80742 10.5284 6.61523C11.4945 6.42305 12.4959 6.52168 13.406 6.89863C14.316 7.27559 15.0938 7.91396 15.6411 8.73301C16.1884 9.55205 16.4805 10.5149 16.4805 11.5C16.4789 12.8204 15.9537 14.0863 15.02 15.02C14.0863 15.9537 12.8204 16.4789 11.5 16.4805Z" fill="white"/>
</svg>
